<?xml version="1.0" encoding="utf-8"?>
<!-- Generator: Adobe Illustrator 19.1.0, SVG Export Plug-In . SVG Version: 6.00 Build 0)  -->
<svg version="1.1" id="Layer_1" xmlns="http://www.w3.org/2000/svg" xmlns:xlink="http://www.w3.org/1999/xlink" x="0px" y="0px"
	 viewBox="0 0 612 792" style="enable-background:new 0 0 612 792;" xml:space="preserve">
<style type="text/css">
	.st0{fill:#467CBF;stroke:#4953A4;stroke-width:3;stroke-miterlimit:10;}
</style>
<g>
	<path class="st0" d="M74.4,154.1c0.7,0,2.9-0.2,2.9,1c0,0.5-3.8,8.9-4.6,8.9c-1,0-2.8-2.8-8.7-2.8c-4.1,0-8.5,2.5-8.5,8.2
		c0,3.6,0.2,4.7,1.9,4.7c3.9,0,4.3-2.8,12.2-2.8c0.7,0,2,0,2,1c0,0.3-2.3,9.7-3.4,9.7c-0.6,0-2.2-0.8-4.6-0.8c-5.3,0-7.9,3.1-7.9,8
		c0,5.2,2.4,13.6,2.3,14.3c0.1,0.7-1.4,0.5-2,0.5h-7.1c-1.5,0-3.3,1.1-3.3-21.4c0-29.6,3.1-28.6,4.1-28.6H74.4z"/>
	<path class="st0" d="M69.3,209.7c-2.2,0-3.3,1.9-3.3-18c0-16.6-0.5-20.3,1.2-20.4h5c0.9,0,2-0.3,2,0.8c0.1,0.9,0.2,2,1.4,2
		c0.9,0,1.9-1,3.2-1.9c1.3-0.9,2.7-1.9,4.3-1.9c3.1,0,5.6,2.6,5.6,5.9c0,4.2-3.4,6.7-5.2,6.7c-0.7,0,0.1-4-4-4
		c-5,0-5.4,8.1-5.4,11.7c0,11.9,2,17,2,18.1c-0.1,1-1.4,1-2,1H69.3z"/>
	<path class="st0" d="M91.5,171.5c1.7-0.3,3.1-0.6,3.1-2.6c0-3.1-3.2-4.7-5.8-4.7c-6.1,0-5.2,5.2-6.5,5.2c-1.9,0-4-2.3-4-4.9
		c0-4.4,5-7.3,10.5-7.3c1.9,0,10.1-0.1,13.2,8.3c1.3,3.5,1.4,21.2,1.4,23.3c0,2.6,0.5,4.2,0.5,6.2c0,1.3-5.6,1.4-11,1.4
		c-14.5,0-15.5-7.4-15.5-11C77.3,177.8,84.8,172.6,91.5,171.5z M95.2,182c0-2.1,0.4-4.6-2.5-4.6c-3.5,0-7.3,3-7.3,6.7
		c0,3.4,2.9,5.3,6.1,5.3c3.5,0,3.7-1.8,3.7-4.7V182z"/>
	<path class="st0" d="M115.4,169.7c0.6,0.1,1,0.2,1.2,0.2c2.8,0,4.4-5.5,6.8-5.5c1.6,0,4.9,4.3,4.9,5.2c0,1.8-5.6,0-5.6,3.1
		c0,1.8,3.1,3,3.1,9.5c0,6.2-4,12.8-12.9,12.8c-3.3,0-7.3,2-7.3,3.8c0,1.1,1,2,2,2c2.5,0,7.5-3,13.1-3c1.4,0,6.4,1.3,6.4,3.5
		c0,1.6-2.4,8.3-4.2,8.3c-1.5,0-1.6-3-4.9-3c-1.8,0-3.7,0.7-5.6,1.5c-1.9,0.7-4,1.5-6.2,1.5c-4.7,0-8.6-2.8-8.6-7.7
		c0-7,6.8-7.7,6.8-9.4c0-1.4-4.3-4.1-4.3-10.6c0-7.9,4.9-12.6,12.9-12.6C113.9,169.5,114.8,169.6,115.4,169.7z M118.7,181.3
		c0-3.8-2.6-6.1-5.8-6.1c-3.2,0-5.8,2.3-5.8,6.1c0,3.5,2.3,6.1,5.8,6.1C116.1,187.4,118.7,185.1,118.7,181.3z"/>
	<path class="st0" d="M126.6,196.4c-2.2,0-3.3,1.9-3.3-18c0-16.6-0.5-20.3,1.2-20.4h5c0.9,0,2-0.3,2,0.8c0.1,0.9,0.2,2,1.4,2
		c0.9,0,1.9-1,3.2-1.9c1.3-0.9,2.7-1.9,4.3-1.9c3.1,0,5.6,2.6,5.6,5.9c0,4.2-3.4,6.7-5.2,6.7c-0.7,0,0.1-4-4-4
		c-5,0-5.4,8.1-5.4,11.7c0,11.9,2,17,2,18.1c-0.1,1-1.4,1-2,1H126.6z"/>
	<path class="st0" d="M147.8,180.1c1.7-0.3,3.1-0.6,3.1-2.6c0-3.1-3.2-4.7-5.8-4.7c-6.1,0-5.2,5.2-6.5,5.2c-1.9,0-4-2.3-4-4.9
		c0-4.4,5-7.3,10.5-7.3c1.9,0,10.1-0.1,13.2,8.3c1.3,3.5,1.4,21.2,1.4,23.3c0,2.6,0.5,4.2,0.5,6.2c0,1.3-5.6,1.4-11,1.4
		c-14.5,0-15.5-7.4-15.5-11C133.7,186.5,141.1,181.2,147.8,180.1z M151.5,190.6c0-2.1,0.4-4.6-2.5-4.6c-3.5,0-7.3,3-7.3,6.7
		c0,3.4,2.9,5.3,6.1,5.3c3.5,0,3.7-1.8,3.7-4.7V190.6z"/>
	<path class="st0" d="M171.7,201.5c-0.8,0-2.1,0.2-2.1-1c0-0.6,3.1-8.6,3.1-20.8c0-4.3-0.4-9.6-4.4-9.6c-2.3,0-7,1.5-7,13.4
		c0,7.2,1.7,16.4,1.7,17.2c0,0.8-1,0.8-1.6,0.8h-5.1c-2.2,0-3.1,1-3.1-14.8c0-27.2,2.1-25.5,6.7-25.5c2.1,0,4.3-0.3,4.3,1.1
		c0,0.6-0.5,1.3-0.5,2.2c0,0.6,0.3,1.1,0.9,1.1c1,0,3.8-2.5,7.6-2.5c1.7,0,8.6,0.2,8.6,16c0,23.6-1.9,22.4-3.9,22.4H171.7z"/>
	<path class="st0" d="M175.8,181c0-10.3,5.2-22,17-22c5.2,0,9,2.8,9,6.2c0,1.8-1.3,5.3-3.5,5.3c-1.4,0-1.1-4.4-6-4.4
		c-6.2,0-8.4,8.2-8.4,13.2c0,5.8,2.8,10.7,8.5,10.7c6.5,0,8-5.9,8.5-5.9c0.3,0,0.9,1.1,0.9,3.5c0,7.2-4.7,11.6-11.8,11.6
		C180,199.1,175.8,189.7,175.8,181z"/>
	<path class="st0" d="M194.8,185c0-14.5,8-21.7,16.1-21.7c6.6,0,12.2,3.7,12.2,10.8c0,12.9-19.3,10.2-19.3,16.4
		c0,2.8,4.6,4.9,7.6,4.9c9.8,0,9.8-7.5,10.7-7.5c0.9,0,1.1,3.1,1.1,3.6c0,7.6-5.9,12-13.1,12C199.2,203.5,194.8,194.6,194.8,185z
		 M202.9,179c0,0.7,0.3,1.3,1.1,1.3c0.7,0,11.6-2.4,11.6-5.5c0-2.9-2.8-4.6-5-4.6C205.7,170.3,202.9,175.6,202.9,179z"/>
	<path class="st0" d="M227.1,181.7c0-13,7.3-27.2,21.9-27.2c5.2,0,13.3,2.2,13.3,8.7c0,3.5-2.4,5.5-6.2,5.5c-2.5,0,0.8-5.6-6.8-5.6
		c-8.8,0-12.5,8.9-12.5,16.4c0,11.5,7.8,16.1,13,16.1c9.8,0,10.6-8.8,11.2-8.8c0.8,0,1.3,4.8,1.3,5.4c0,8.9-6.8,14-15.2,14
		C233.4,206.2,227.1,193.9,227.1,181.7z"/>
	<path class="st0" d="M255.7,181.3c0-9.7,4.6-20,15.1-20s15.1,10.4,15.1,20c0,14.1-8.2,20.2-15.1,20.2S255.7,195.4,255.7,181.3z
		 M278.4,179.8c0-4.7-1.7-11.5-7.6-11.5s-7.6,6.7-7.6,11.5c0,4.8,1.6,11.6,7.6,11.6S278.4,184.6,278.4,179.8z"/>
	<path class="st0" d="M285.6,204.7c-2.1,0-1.9-20.1-1.9-21.5c0-2.8-0.2-29.7,2.5-29.7h5.7c0.7,0,2.5-0.2,2.5,1.1
		c0,0.4-2.5,9-2.5,23.9c0,16.5,2.3,24.6,2.3,25.4c0,1-1.6,0.7-2.2,0.7H285.6z"/>
	<path class="st0" d="M296.2,204.6c-2.1,0-1.9-20.1-1.9-21.5c0-2.8-0.2-29.7,2.5-29.7h5.7c0.7,0,2.5-0.2,2.5,1.1
		c0,0.4-2.5,9-2.5,23.9c0,16.5,2.3,24.6,2.3,25.4c0,1-1.6,0.7-2.2,0.7H296.2z"/>
	<path class="st0" d="M301.6,182.9c0-14.5,8-21.7,16.1-21.7c6.6,0,12.2,3.7,12.2,10.8c0,12.9-19.3,10.2-19.3,16.4
		c0,2.8,4.6,4.9,7.6,4.9c9.8,0,9.8-7.5,10.7-7.5c0.9,0,1.1,3.1,1.1,3.6c0,7.6-5.9,12-13.1,12C306.1,201.4,301.6,192.5,301.6,182.9z
		 M309.7,177c0,0.7,0.3,1.3,1.1,1.3c0.7,0,11.6-2.4,11.6-5.5c0-2.9-2.8-4.6-5-4.6C312.6,168.3,309.7,173.5,309.7,177z"/>
	<path class="st0" d="M326.9,180.2c0-10.3,5.2-22,17-22c5.2,0,9,2.8,9,6.2c0,1.8-1.3,5.3-3.5,5.3c-1.4,0-1.1-4.4-6-4.4
		c-6.2,0-8.4,8.2-8.4,13.2c0,5.8,2.8,10.7,8.5,10.7c6.5,0,8-5.9,8.5-5.9c0.3,0,0.9,1.1,0.9,3.5c0,7.2-4.7,11.6-11.8,11.6
		C331.1,198.4,326.9,189,326.9,180.2z"/>
	<path class="st0" d="M365.4,162.6c0,1.6-1.8,5.3-1.8,6c0,1.1,0.3,1.8,1.2,1.8c0.8,0,1.5-0.3,2.3-0.3c2.3,0,2.3,1.6,2.3,3.7
		c0,0.8,0,3.1-1.3,3.1c-0.5,0-1.7-0.5-2.8-0.5c-3.3,0-3.3,3.8-3.3,9.2c0,16,3.4,18.6,3.4,19.6c0,0.9-7,4.3-8.3,4.3
		c-2.3,0-2.9-13.4-2.9-16.7c0-7.4,0.4-10.3,0.4-11.4c0-1.8,0.5-5-2.2-5c-1.1,0-1.7,0.7-2.3,0.7c-0.8,0-0.7-0.8-0.7-1.9
		c0-4.6,1.3-5.1,3.6-5.1c0.2,0,0.7,0.2,1.1,0.2c1.9,0,2-2.9,2.3-5c0.3-2.3,7-4,8.2-4C365.1,161.4,365.4,161.5,365.4,162.6z"/>
	<path class="st0" d="M372.6,198.9c-2.9,0-3.2,1.3-3.2-19.9c0-20.5,1-18.5,2.9-18.5h3.3c2.5,0,2.6,0.2,2.6,0.9c0,2.2-0.7,4.4-0.7,11
		c0,15.1,2.3,24.4,2.3,25c0,1.9-1.8,1.6-3.2,1.6H372.6z M370,151.8c0-2.6,2.2-4.1,4.6-4.1c2.4,0,4.6,1.6,4.6,4.1s-2.2,4-4.6,4
		C372.3,155.8,370,154.4,370,151.8z"/>
	<path class="st0" d="M374.7,179c0-9.7,4.6-20,15.1-20s15.1,10.4,15.1,20c0,14.1-8.2,20.2-15.1,20.2S374.7,193.1,374.7,179z
		 M397.3,177.5c0-4.7-1.7-11.5-7.6-11.5s-7.6,6.7-7.6,11.5c0,4.8,1.6,11.6,7.6,11.6S397.3,182.3,397.3,177.5z"/>
	<path class="st0" d="M420.3,197.7c-0.8,0-2.1,0.2-2.1-1c0-0.6,3.1-8.6,3.1-20.8c0-4.3-0.4-9.6-4.4-9.6c-2.3,0-7,1.5-7,13.4
		c0,7.2,1.7,16.4,1.7,17.2c0,0.8-1,0.8-1.6,0.8h-5.1c-2.2,0-3.1,1-3.1-14.8c0-27.2,2.1-25.5,6.7-25.5c2.1,0,4.3-0.3,4.3,1.1
		c0,0.6-0.5,1.3-0.5,2.2c0,0.6,0.3,1.1,0.9,1.1c1,0,3.8-2.5,7.6-2.5c1.7,0,8.6,0.2,8.6,16c0,23.6-1.9,22.4-3.9,22.4H420.3z"/>
	<g>
		<g>
			<path class="st0" d="M98.6,137.1c2.7,7.1,7.9,11.9,11.6,10.6c3.7-1.3,4.5-8.1,1.8-15.3c-2.7-7.1-7.9-11.9-11.6-10.6
				S95.8,129.9,98.6,137.1z"/>
			<polygon class="st0" points="100.4,121.8 146.8,105.6 156.6,131.5 110.2,147.7 			"/>
			<path class="st0" d="M145.8,120.6c2.7,7.1,7.9,11.9,11.6,10.6s4.5-8.1,1.8-15.3s-7.9-11.9-11.6-10.6
				C143.9,106.6,143.1,113.4,145.8,120.6z"/>
		</g>
		<polygon class="st0" points="151.4,115.6 167.4,110 170.3,117.8 154.4,123.4 		"/>
		<path class="st0" d="M163.1,119.3c-0.5-1.3,0.5-2.8,2.3-3.4s3.6-0.1,4,1.2c0.5,1.3-0.5,2.8-2.3,3.4S163.5,120.6,163.1,119.3z"/>
	</g>
	<g>
		<g>
			<path class="st0" d="M404.5,137.2c-2.7,7.1-7.9,11.9-11.6,10.6c-3.7-1.3-4.5-8.1-1.8-15.3c2.7-7.1,7.9-11.9,11.6-10.6
				C406.4,123.2,407.2,130.1,404.5,137.2z"/>
			<polygon class="st0" points="402.7,121.9 356.2,105.7 346.4,131.6 392.8,147.8 			"/>
			<path class="st0" d="M357.2,120.7c-2.7,7.1-7.9,11.9-11.6,10.6c-3.7-1.3-4.5-8.1-1.8-15.3c2.7-7.1,7.9-11.9,11.6-10.6
				C359.1,106.7,359.9,113.6,357.2,120.7z"/>
		</g>
		<polygon class="st0" points="351.6,115.7 335.6,110.1 332.7,117.9 348.6,123.5 		"/>
		<path class="st0" d="M340,119.5c0.5-1.3-0.5-2.8-2.3-3.4c-1.7-0.6-3.6-0.1-4,1.2s0.5,2.8,2.3,3.4
			C337.7,121.3,339.5,120.8,340,119.5z"/>
	</g>
</g>
</svg>
